<svg version="1.1" xmlns="http://www.w3.org/2000/svg" xmlns:xlink="http://www.w3.org/1999/xlink" width="111.80529" height="111.40603" viewBox="0,0,111.80529,111.40603"><g transform="translate(-183.74468,-124.31664)"><g data-paper-data="{&quot;isPaintingLayer&quot;:true}" fill-rule="nonzero" stroke="none" stroke-width="0" stroke-linecap="butt" stroke-linejoin="miter" stroke-miterlimit="10" stroke-dasharray="" stroke-dashoffset="0" style="mix-blend-mode: normal"><path d="M268.26489,198.42364c-1.02767,-1.47653 -0.11489,-3.23863 -0.11489,-3.23863c0,0 5.37529,3.62188 7.95454,5.85257c2.32839,2.01373 6.84546,6.94743 6.84546,6.94743l9.4,9.525c0,0 -8.09546,-0.23179 -8.51924,-0.68133c-4.98591,-5.28893 -13.50902,-15.44978 -15.56587,-18.40503z" fill="#292f33"/><path d="M199.33334,192.66364l-4.33788,-3.63788c0,0 0.766,-1.46358 2.74523,-2.64007c2.81923,-1.6758 7.49708,-3.33035 11.40428,-4.14779c8.62058,-1.80354 30.23836,-0.48487 30.23836,-0.48487l0.54546,1.43939c0,0 -15.89221,0.41514 -22.79018,2.02364c-6.60441,1.54004 -17.80527,7.44758 -17.80527,7.44758z" fill="#292f33"/><path d="M192.12244,235.72268c0,0 0.47146,-37.71813 0.47776,-37.72622c0.21169,-0.27233 6.192,1.45523 10.66,5.54567c4.15993,3.80841 6.77144,10.02132 8.40443,9.26233c0.85379,-0.39683 11.54821,0.91835 21.39597,-0.24782c8.49916,-1.00646 16.19701,-4.37313 18.42081,-6.20274c1.13805,-0.93632 4.76798,-3.30279 4.27537,-6.10125c-0.5434,-3.08695 -5.48142,-4.80288 -5.53726,-5.31914c-0.13362,-1.23547 -13.61896,1.11416 -27.66234,1.44169c-8.58769,0.20029 -17.16969,-3.26195 -23.27684,-3.72627c-0.27139,-0.02063 4.84868,-3.86211 12.48588,-6.62437c9.59268,-3.46953 29.01489,-2.73465 27.87663,-3.47091c-0.6892,-0.4458 -14.21321,-2.05184 -26.55779,-0.50449c-11.3022,1.41669 -17.9764,7.09634 -17.97777,7.08635c-0.01239,-0.09063 -4.53016,-3.86031 -7.64782,-8.24671c-2.49696,-3.51311 -3.73727,-7.70866 -3.71448,-8.5914c0.0317,-1.22806 9.36449,-7.78755 19.58019,-12.70188c10.21376,-4.91341 24.43175,-8.40472 24.43175,-8.40472c0,0 4.50364,-12.47264 11.57516,-19.29757c2.17157,-2.09585 3.99672,-4.83539 6.30757,-5.94149c5.04487,-2.41475 10.14499,-1.5637 10.27267,-1.12528c1.63996,5.63142 3.31161,22.46957 6.0445,24.61686c0.50878,0.39976 9.99122,2.34721 19.0757,9.7432c8.98048,7.31133 13.7768,20.51488 13.79253,21.44734c0.01599,0.94781 1.1048,6.56391 0.58391,12.13239c-0.55827,5.96797 -2.73353,11.91438 -2.86435,13.02861c-0.11894,1.0131 0.02072,11.62539 -0.14369,11.63247c-2.09614,0.09028 -22.6384,-22.26269 -23.94906,-21.91058c-2.31023,0.62064 13.882,19.64684 13.882,19.64684c0,0 -17.94237,8.15361 -33.71234,9.93083c-14.46015,1.62961 -29.51517,-3.64963 -36.66242,-2.52534c-2.14571,0.33752 -4.61469,4.47857 -9.21361,8.30396c-4.57856,3.80846 -10.62304,4.84963 -10.62304,4.84963z" fill="#66757f"/><path d="M222.20786,161.16799h8.93298c0,0 -0.16893,2.14157 -0.64246,3.09043c-0.45938,0.92051 -2.15754,2.5203 -2.15754,2.5203c0,0 -3.35111,1.07147 -4.42351,-0.15958c-0.39349,-0.45171 -1.38638,-1.63969 -1.69611,-2.79173c-0.36417,-1.35455 -0.01336,-2.65942 -0.01336,-2.65942z" fill="#2d353a"/><path d="M218.60238,194.59369c0,0 -1.75877,-1.46759 -2.19198,-2.60477c-0.65864,-1.72892 -1.37523,-6.75916 -1.37523,-6.75916l6.40492,-1.25576c0,0 0.11909,4.3012 -0.32437,5.95407c-0.35343,1.31733 -2.51334,4.66563 -2.51334,4.66563z" fill="#ffffff"/><path d="M209.33353,195.70189c0,0 -1.58137,-1.84573 -1.97771,-3.03475c-0.47952,-1.43856 -0.51573,-4.26356 -0.51573,-4.26356l4.9459,-2.28857c0,0 -0.47679,3.6069 -0.90401,5.27694c-0.3861,1.50929 -1.54845,4.30995 -1.54845,4.30995z" fill="#ffffff"/><path d="M236.53353,191.46582c0,0 -1.3155,-1.12188 -1.71324,-2.22331c-0.52992,-1.4675 -1.3671,-6.10623 -1.3671,-6.10623l6.20166,-0.36554c0,0 -0.16453,4.16019 -0.60798,5.81306c-0.35343,1.31734 -2.51334,2.88202 -2.51334,2.88202z" fill="#ffffff"/><path d="M227.48763,192.67566c0,0 -1.3155,-1.12188 -1.71324,-2.22331c-0.52992,-1.4675 -1.3671,-6.71283 -1.3671,-6.71283l6.32298,-0.50655c0,0 -0.28585,4.90779 -0.7293,6.56067c-0.35343,1.31734 -2.51334,2.88202 -2.51334,2.88202z" fill="#ffffff"/></g></g></svg>